<svg xmlns="http://www.w3.org/2000/svg" xmlns:xlink="http://www.w3.org/1999/xlink" width="500" zoomAndPan="magnify" viewBox="0 0 375 374.999991" height="500" preserveAspectRatio="xMidYMid meet" version="1.0"><defs><g/><clipPath id="d3b2114dbc"><path d="M 81.191406 246.363281 L 293.441406 246.363281 L 293.441406 247.113281 L 81.191406 247.113281 Z M 81.191406 246.363281 " clip-rule="nonzero"/></clipPath><clipPath id="3e984b4156"><path d="M 150.53125 111.683594 L 197 111.683594 L 197 173.183594 L 150.53125 173.183594 Z M 150.53125 111.683594 " clip-rule="nonzero"/></clipPath><clipPath id="32bfe5a53d"><path d="M 186 148 L 198.53125 148 L 198.53125 151 L 186 151 Z M 186 148 " clip-rule="nonzero"/></clipPath><clipPath id="db82f5a332"><path d="M 186 152 L 198.53125 152 L 198.53125 155 L 186 155 Z M 186 152 " clip-rule="nonzero"/></clipPath><clipPath id="b3f2f9178f"><path d="M 187 155 L 198.53125 155 L 198.53125 158 L 187 158 Z M 187 155 " clip-rule="nonzero"/></clipPath><clipPath id="124566d99f"><path d="M 184.457031 144.898438 L 202.253906 144.898438 L 202.253906 178.847656 L 184.457031 178.847656 Z M 184.457031 144.898438 " clip-rule="nonzero"/></clipPath><clipPath id="601fe17328"><path d="M 184.324219 119.894531 L 233.167969 119.894531 L 233.167969 145 L 184.324219 145 Z M 184.324219 119.894531 " clip-rule="nonzero"/></clipPath><clipPath id="1b4189345c"><path d="M 193 138 L 233 138 L 233 151 L 193 151 Z M 193 138 " clip-rule="nonzero"/></clipPath><clipPath id="10b880b28d"><path d="M 194.898438 138.089844 L 232.199219 142.820312 L 231.265625 150.171875 L 193.964844 145.441406 Z M 194.898438 138.089844 " clip-rule="nonzero"/></clipPath><clipPath id="fc708a3280"><path d="M 194.898438 138.089844 L 232.183594 142.816406 L 231.253906 150.167969 L 193.964844 145.441406 Z M 194.898438 138.089844 " clip-rule="nonzero"/></clipPath><clipPath id="7fdeec2160"><path d="M 205 142 L 230 142 L 230 174 L 205 174 Z M 205 142 " clip-rule="nonzero"/></clipPath><clipPath id="f08637f29b"><path d="M 205.214844 171.542969 L 208.261719 142.167969 L 229.75 144.394531 L 226.703125 173.773438 Z M 205.214844 171.542969 " clip-rule="nonzero"/></clipPath><clipPath id="9273a6bd4e"><path d="M 205.214844 171.542969 L 208.257812 142.191406 L 229.746094 144.421875 L 226.703125 173.773438 Z M 205.214844 171.542969 " clip-rule="nonzero"/></clipPath><clipPath id="a3e1380e99"><path d="M 205 155 L 209 155 L 209 161 L 205 161 Z M 205 155 " clip-rule="nonzero"/></clipPath><clipPath id="8fc7e1c54c"><path d="M 205.078125 159.855469 L 205.503906 155.765625 L 208.746094 156.101562 L 208.324219 160.191406 Z M 205.078125 159.855469 " clip-rule="nonzero"/></clipPath><clipPath id="438aa89324"><path d="M 205.078125 159.855469 L 205.503906 155.773438 L 208.746094 156.109375 L 208.324219 160.191406 Z M 205.078125 159.855469 " clip-rule="nonzero"/></clipPath></defs><rect x="-37.5" width="450" fill="#ffffff" y="-37.499999" height="449.999989" fill-opacity="1"/><rect x="-37.5" width="450" fill="#000000" y="-37.499999" height="449.999989" fill-opacity="1"/><g clip-path="url(#d3b2114dbc)"><path fill="#ffffff" d="M 81.191406 247.082031 L 81.191406 246.621094 L 293.808594 246.621094 L 293.808594 247.082031 Z M 81.191406 247.082031 " fill-opacity="1" fill-rule="nonzero"/></g><g clip-path="url(#3e984b4156)"><path fill="#ffffff" d="M 196.964844 115.253906 C 196.503906 115.832031 195.953125 116.335938 195.371094 116.796875 C 194.78125 117.257812 194.15625 117.667969 193.496094 118.03125 C 192.835938 118.394531 192.144531 118.699219 191.429688 118.945312 C 190.714844 119.195312 189.984375 119.40625 189.238281 119.542969 C 187.742188 119.851562 186.203125 119.90625 184.679688 119.804688 C 183.15625 119.699219 181.648438 119.410156 180.179688 119 L 179.628906 118.84375 C 179.449219 118.785156 179.269531 118.722656 179.089844 118.664062 C 178.730469 118.535156 178.363281 118.429688 178.011719 118.285156 C 177.65625 118.148438 177.296875 118.011719 176.949219 117.871094 L 175.90625 117.410156 L 175.402344 117.1875 C 175.242188 117.117188 175.078125 117.042969 174.917969 116.972656 C 174.59375 116.832031 174.261719 116.699219 173.933594 116.566406 C 173.273438 116.308594 172.605469 116.074219 171.933594 115.863281 C 170.585938 115.445312 169.210938 115.113281 167.832031 114.894531 C 166.453125 114.679688 165.070312 114.589844 163.710938 114.632812 C 162.355469 114.683594 161.027344 114.890625 159.808594 115.304688 C 158.59375 115.710938 157.503906 116.328125 156.636719 117.15625 C 155.765625 117.980469 155.140625 119.023438 154.730469 120.183594 C 154.316406 121.347656 154.128906 122.636719 154.113281 123.964844 C 154.101562 124.292969 154.117188 124.628906 154.125 124.960938 C 154.148438 125.296875 154.15625 125.632812 154.191406 125.972656 C 154.246094 126.644531 154.347656 127.328125 154.457031 128.007812 C 154.523438 128.347656 154.578125 128.6875 154.652344 129.027344 L 154.761719 129.535156 L 154.886719 130.046875 C 154.964844 130.386719 155.058594 130.722656 155.152344 131.0625 L 155.21875 131.316406 L 155.289062 131.558594 C 155.335938 131.722656 155.386719 131.882812 155.441406 132.046875 C 155.851562 133.335938 156.375 134.589844 157.019531 135.777344 C 157.339844 136.371094 157.6875 136.949219 158.066406 137.511719 L 158.355469 137.929688 L 158.652344 138.339844 L 159.304688 139.1875 C 160.226562 140.394531 161.105469 141.636719 161.929688 142.925781 C 162.75 144.214844 163.523438 145.546875 164.210938 146.9375 C 164.890625 148.335938 165.492188 149.789062 165.945312 151.328125 L 166.253906 152.496094 C 166.332031 152.898438 166.417969 153.296875 166.488281 153.699219 L 166.570312 154.316406 L 166.605469 154.625 C 166.617188 154.726562 166.632812 154.835938 166.640625 154.921875 L 166.734375 155.996094 C 167.015625 158.859375 167.433594 161.722656 168.058594 164.476562 C 168.378906 165.847656 168.765625 167.203125 169.285156 168.390625 C 169.414062 168.683594 169.550781 168.964844 169.699219 169.214844 C 169.84375 169.46875 170 169.6875 170.136719 169.84375 C 170.207031 169.921875 170.273438 169.988281 170.324219 170.023438 C 170.371094 170.058594 170.40625 170.078125 170.410156 170.089844 C 170.417969 170.09375 170.402344 170.09375 170.398438 170.097656 C 170.394531 170.101562 170.40625 170.113281 170.449219 170.09375 C 170.496094 170.078125 170.5625 170.050781 170.640625 169.996094 C 170.679688 169.972656 170.722656 169.9375 170.765625 169.902344 L 170.796875 169.878906 L 170.808594 169.867188 C 170.816406 169.859375 170.820312 169.855469 170.828125 169.851562 C 170.902344 169.785156 171.039062 169.574219 171.144531 169.328125 C 171.257812 169.074219 171.363281 168.785156 171.453125 168.46875 C 171.546875 168.160156 171.621094 167.828125 171.695312 167.492188 C 171.980469 166.140625 172.160156 164.695312 172.339844 163.253906 C 172.515625 161.804688 172.667969 160.335938 172.855469 158.867188 C 173.039062 157.398438 173.238281 155.925781 173.5 154.453125 C 173.761719 152.980469 174.070312 151.511719 174.503906 150.0625 C 174.941406 148.617188 175.476562 147.175781 176.300781 145.863281 C 176.710938 145.210938 177.195312 144.59375 177.773438 144.0625 C 178.347656 143.53125 179.039062 143.117188 179.773438 142.867188 C 179.957031 142.796875 180.148438 142.761719 180.332031 142.710938 C 180.523438 142.667969 180.714844 142.648438 180.902344 142.617188 C 181.09375 142.609375 181.285156 142.589844 181.476562 142.589844 C 181.664062 142.59375 181.855469 142.589844 182.042969 142.613281 C 182.792969 142.671875 183.519531 142.859375 184.210938 143.109375 C 183.492188 142.960938 182.757812 142.878906 182.035156 142.90625 C 181.859375 142.90625 181.679688 142.9375 181.5 142.953125 C 181.324219 142.976562 181.152344 143.015625 180.976562 143.046875 C 180.804688 143.097656 180.632812 143.132812 180.46875 143.195312 C 180.304688 143.261719 180.140625 143.3125 179.984375 143.394531 C 179.359375 143.695312 178.796875 144.113281 178.347656 144.632812 C 177.890625 145.152344 177.519531 145.746094 177.210938 146.375 C 176.601562 147.636719 176.214844 149.019531 175.929688 150.421875 C 175.648438 151.828125 175.460938 153.261719 175.328125 154.703125 C 175.050781 157.59375 174.96875 160.511719 174.800781 163.472656 C 174.714844 164.957031 174.609375 166.445312 174.378906 167.992188 C 174.316406 168.378906 174.246094 168.769531 174.152344 169.167969 C 174.058594 169.566406 173.945312 169.976562 173.78125 170.410156 C 173.613281 170.839844 173.414062 171.296875 173 171.785156 C 172.941406 171.847656 172.886719 171.90625 172.828125 171.96875 L 172.742188 172.058594 L 172.667969 172.121094 C 172.574219 172.203125 172.476562 172.289062 172.363281 172.371094 C 172.148438 172.535156 171.894531 172.695312 171.601562 172.824219 C 171.3125 172.953125 170.960938 173.050781 170.589844 173.078125 C 170.21875 173.105469 169.832031 173.058594 169.488281 172.949219 C 169.144531 172.84375 168.851562 172.683594 168.597656 172.515625 C 168.339844 172.347656 168.136719 172.164062 167.945312 171.976562 C 167.578125 171.601562 167.300781 171.222656 167.054688 170.851562 C 166.816406 170.476562 166.613281 170.105469 166.429688 169.734375 C 166.0625 168.988281 165.78125 168.25 165.519531 167.511719 C 165.265625 166.769531 165.046875 166.03125 164.84375 165.292969 C 164.445312 163.816406 164.125 162.335938 163.859375 160.851562 C 163.59375 159.367188 163.371094 157.882812 163.191406 156.386719 L 163.0625 155.269531 L 162.925781 154.300781 L 162.722656 153.34375 L 162.457031 152.382812 C 162.058594 151.101562 161.515625 149.835938 160.886719 148.597656 C 159.632812 146.113281 158.058594 143.734375 156.320312 141.480469 L 155.632812 140.574219 L 155.285156 140.089844 L 154.949219 139.597656 C 154.507812 138.933594 154.101562 138.25 153.726562 137.546875 C 152.980469 136.144531 152.363281 134.671875 151.902344 133.152344 C 151.839844 132.964844 151.785156 132.773438 151.734375 132.582031 L 151.65625 132.292969 L 151.585938 132.015625 C 151.492188 131.640625 151.394531 131.269531 151.3125 130.890625 L 151.1875 130.324219 L 151.074219 129.753906 C 150.996094 129.375 150.9375 128.988281 150.871094 128.605469 C 150.753906 127.832031 150.652344 127.050781 150.601562 126.257812 C 150.566406 125.863281 150.558594 125.464844 150.546875 125.066406 C 150.546875 124.664062 150.539062 124.265625 150.5625 123.859375 C 150.625 122.25 150.890625 120.589844 151.5 118.992188 C 152.097656 117.398438 153.09375 115.878906 154.410156 114.722656 C 155.71875 113.5625 157.285156 112.765625 158.875 112.308594 C 160.472656 111.847656 162.09375 111.683594 163.675781 111.695312 C 165.261719 111.707031 166.816406 111.910156 168.332031 112.226562 C 169.84375 112.550781 171.320312 112.992188 172.746094 113.546875 C 173.460938 113.820312 174.164062 114.121094 174.855469 114.445312 C 175.203125 114.609375 175.542969 114.773438 175.882812 114.949219 C 176.054688 115.035156 176.222656 115.125 176.390625 115.214844 L 176.878906 115.476562 C 178.125 116.171875 179.421875 116.757812 180.75 117.253906 C 182.082031 117.753906 183.453125 118.128906 184.851562 118.355469 C 186.25 118.582031 187.675781 118.65625 189.09375 118.523438 C 189.804688 118.46875 190.511719 118.347656 191.207031 118.183594 C 191.90625 118.019531 192.59375 117.796875 193.261719 117.523438 C 194.59375 116.984375 195.875 116.246094 196.964844 115.253906 Z M 196.964844 115.253906 " fill-opacity="1" fill-rule="nonzero"/></g><g clip-path="url(#32bfe5a53d)"><path fill="#ffffff" d="M 192.660156 150.582031 C 193.695312 150.582031 194.726562 150.511719 195.761719 150.355469 C 196.792969 150.1875 197.824219 149.964844 198.859375 149.519531 C 197.824219 149.074219 196.792969 148.851562 195.761719 148.683594 C 194.726562 148.523438 193.695312 148.457031 192.660156 148.457031 C 191.628906 148.460938 190.597656 148.527344 189.5625 148.6875 C 188.53125 148.851562 187.5 149.074219 186.464844 149.519531 C 187.5 149.964844 188.53125 150.183594 189.5625 150.351562 C 190.597656 150.511719 191.628906 150.578125 192.660156 150.582031 Z M 192.660156 150.582031 " fill-opacity="1" fill-rule="nonzero"/></g><g clip-path="url(#db82f5a332)"><path fill="#ffffff" d="M 192.660156 152.136719 C 191.683594 152.136719 190.707031 152.207031 189.730469 152.363281 C 188.75 152.53125 187.773438 152.75 186.796875 153.195312 C 187.773438 153.640625 188.75 153.863281 189.730469 154.03125 C 190.707031 154.191406 191.683594 154.257812 192.660156 154.257812 C 193.640625 154.257812 194.617188 154.191406 195.59375 154.03125 C 196.570312 153.867188 197.550781 153.640625 198.527344 153.195312 C 197.550781 152.75 196.570312 152.527344 195.59375 152.363281 C 194.617188 152.199219 193.640625 152.136719 192.660156 152.136719 Z M 192.660156 152.136719 " fill-opacity="1" fill-rule="nonzero"/></g><g clip-path="url(#b3f2f9178f)"><path fill="#ffffff" d="M 192.660156 155.808594 C 191.757812 155.8125 190.855469 155.878906 189.949219 156.039062 C 189.046875 156.203125 188.144531 156.425781 187.238281 156.871094 C 188.144531 157.316406 189.046875 157.535156 189.949219 157.703125 C 190.855469 157.863281 191.757812 157.929688 192.660156 157.933594 C 193.566406 157.933594 194.46875 157.863281 195.371094 157.707031 C 196.277344 157.539062 197.179688 157.316406 198.082031 156.871094 C 197.179688 156.425781 196.277344 156.203125 195.371094 156.035156 C 194.46875 155.875 193.566406 155.808594 192.660156 155.808594 Z M 192.660156 155.808594 " fill-opacity="1" fill-rule="nonzero"/></g><path fill="#ffffff" d="M 192.644531 159.484375 C 191.808594 159.488281 190.976562 159.554688 190.136719 159.714844 C 189.300781 159.878906 188.46875 160.101562 187.628906 160.546875 C 188.464844 160.988281 189.300781 161.210938 190.136719 161.378906 C 190.972656 161.539062 191.808594 161.605469 192.644531 161.605469 C 193.480469 161.605469 194.316406 161.539062 195.152344 161.382812 C 195.988281 161.214844 196.824219 160.992188 197.660156 160.546875 C 196.828125 160.101562 195.992188 159.875 195.152344 159.710938 C 194.316406 159.550781 193.480469 159.484375 192.644531 159.484375 Z M 192.644531 159.484375 " fill-opacity="1" fill-rule="nonzero"/><path fill="#ffffff" d="M 192.65625 163.160156 C 191.890625 163.160156 191.128906 163.230469 190.367188 163.386719 C 189.605469 163.554688 188.84375 163.773438 188.082031 164.21875 C 188.84375 164.664062 189.609375 164.886719 190.367188 165.054688 C 191.132812 165.214844 191.894531 165.28125 192.65625 165.28125 C 193.417969 165.28125 194.179688 165.214844 194.941406 165.054688 C 195.703125 164.890625 196.46875 164.667969 197.226562 164.21875 C 196.464844 163.773438 195.703125 163.550781 194.941406 163.386719 C 194.179688 163.226562 193.417969 163.160156 192.65625 163.160156 Z M 192.65625 163.160156 " fill-opacity="1" fill-rule="nonzero"/><path fill="#ffffff" d="M 192.65625 166.835938 C 191.964844 166.839844 191.273438 166.90625 190.582031 167.0625 C 189.890625 167.230469 189.199219 167.453125 188.507812 167.898438 C 189.199219 168.339844 189.886719 168.5625 190.582031 168.730469 C 191.269531 168.890625 191.960938 168.957031 192.65625 168.957031 C 193.34375 168.957031 194.035156 168.890625 194.730469 168.734375 C 195.417969 168.566406 196.109375 168.34375 196.804688 167.898438 C 196.113281 167.453125 195.421875 167.226562 194.730469 167.0625 C 194.039062 166.902344 193.34375 166.835938 192.65625 166.835938 Z M 192.65625 166.835938 " fill-opacity="1" fill-rule="nonzero"/><path fill="#ffffff" d="M 192.660156 170.511719 C 192.039062 170.511719 191.417969 170.582031 190.796875 170.738281 C 190.175781 170.90625 189.554688 171.125 188.9375 171.570312 C 189.554688 172.015625 190.175781 172.238281 190.796875 172.40625 C 191.417969 172.566406 192.039062 172.632812 192.660156 172.632812 C 193.28125 172.632812 193.902344 172.566406 194.519531 172.40625 C 195.140625 172.242188 195.761719 172.015625 196.382812 171.570312 C 195.761719 171.125 195.140625 170.902344 194.519531 170.738281 C 193.902344 170.574219 193.28125 170.511719 192.660156 170.511719 Z M 192.660156 170.511719 " fill-opacity="1" fill-rule="nonzero"/><g clip-path="url(#124566d99f)"><path fill="#000000" d="M 184.457031 144.898438 L 202.253906 144.898438 L 202.253906 178.828125 L 184.457031 178.828125 Z M 184.457031 144.898438 " fill-opacity="1" fill-rule="nonzero"/></g><path fill="#ffffff" d="M 197.324219 156.761719 C 191.675781 157.265625 186.925781 156.175781 186.714844 154.320312 C 186.613281 153.453125 187.53125 152.566406 189.125 151.820312 C 189.125 151.839844 189.125 151.859375 189.125 151.878906 C 189.398438 154.167969 195.277344 155.519531 202.265625 154.894531 C 203.507812 154.785156 204.6875 154.625 205.804688 154.410156 C 204.101562 155.511719 200.976562 156.429688 197.324219 156.761719 Z M 197.304688 151.425781 C 201.410156 151.054688 204.9375 150.023438 206.84375 148.785156 C 205.585938 149.015625 204.253906 149.207031 202.859375 149.328125 C 194.996094 150.035156 188.378906 148.511719 188.074219 145.929688 C 188.074219 145.910156 188.074219 145.890625 188.066406 145.859375 C 186.269531 146.695312 185.242188 147.695312 185.351562 148.671875 C 185.605469 150.761719 190.949219 151.992188 197.304688 151.425781 Z M 193.039062 167.480469 C 195.195312 172.101562 197.617188 172.152344 200.300781 167.625 C 197.535156 168.136719 195.117188 168.085938 193.039062 167.480469 Z M 197.144531 165.71875 C 193.84375 166.011719 191.070312 165.375 190.949219 164.296875 C 190.890625 163.792969 191.425781 163.265625 192.351562 162.832031 C 192.351562 162.84375 192.351562 162.851562 192.351562 162.863281 C 192.503906 164.203125 195.941406 164.992188 200.015625 164.628906 C 200.742188 164.566406 201.429688 164.46875 202.085938 164.347656 C 201.105469 164.992188 199.28125 165.527344 197.144531 165.71875 Z M 197.191406 161.734375 C 193.019531 162.105469 189.5 161.300781 189.335938 159.929688 C 189.265625 159.28125 189.941406 158.628906 191.121094 158.074219 C 191.121094 158.082031 191.121094 158.101562 191.121094 158.113281 C 191.324219 159.808594 195.671875 160.816406 200.84375 160.351562 C 201.761719 160.269531 202.640625 160.148438 203.464844 159.988281 C 202.214844 160.804688 199.894531 161.492188 197.191406 161.734375 Z M 197.191406 161.734375 " fill-opacity="1" fill-rule="evenodd"/><path fill="#ffffff" d="M 226.492188 144.113281 C 228.476562 134.65625 227.773438 128.964844 224.363281 127.050781 C 218.765625 123.914062 210.878906 132.71875 206.339844 125.054688 C 212.976562 127.472656 216.769531 123.832031 220.21875 122.027344 C 230.28125 116.773438 233.449219 135.601562 226.492188 144.113281 Z M 226.492188 144.113281 " fill-opacity="1" fill-rule="evenodd"/><path fill="#ffffff" d="M 221.539062 166.484375 C 225.261719 162.117188 229.304688 155.542969 227.308594 149.398438 C 223.617188 138.082031 203.707031 141.363281 194.734375 138.507812 C 190.496094 137.164062 187.402344 134.574219 188.964844 129.550781 C 189.730469 127.089844 191.910156 125.023438 195.699219 124.863281 C 202.691406 124.570312 207.882812 137.308594 215.367188 128.988281 C 206.308594 134.210938 204.101562 120.859375 195.621094 121.121094 C 190.316406 121.292969 186.644531 125.195312 185.59375 129.875 C 184.03125 136.851562 187.984375 141.371094 193.210938 143.773438 C 200.136719 146.949219 217.828125 144.679688 222.347656 150.933594 C 224.695312 154.179688 222.183594 160.484375 219.511719 164.105469 C 217.445312 166.917969 215.277344 168.109375 215.234375 164.972656 C 214.703125 160.5625 211.605469 156.679688 205.632812 158.789062 C 210.625 159.34375 211.472656 162.792969 212.433594 167.140625 C 212.804688 173.222656 215.832031 173.007812 221.539062 166.484375 Z M 221.539062 166.484375 " fill-opacity="1" fill-rule="evenodd"/><g clip-path="url(#601fe17328)"><path fill="#000000" d="M 184.324219 119.894531 L 233.160156 119.894531 L 233.160156 145 L 184.324219 145 Z M 184.324219 119.894531 " fill-opacity="1" fill-rule="nonzero"/></g><g clip-path="url(#1b4189345c)"><g clip-path="url(#10b880b28d)"><g clip-path="url(#fc708a3280)"><path fill="#000000" d="M 194.898438 138.089844 L 232.199219 142.820312 L 231.265625 150.171875 L 193.964844 145.441406 Z M 194.898438 138.089844 " fill-opacity="1" fill-rule="nonzero"/></g></g></g><g clip-path="url(#7fdeec2160)"><g clip-path="url(#f08637f29b)"><g clip-path="url(#9273a6bd4e)"><path fill="#000000" d="M 205.214844 171.542969 L 208.261719 142.167969 L 229.75 144.394531 L 226.703125 173.773438 Z M 205.214844 171.542969 " fill-opacity="1" fill-rule="nonzero"/></g></g></g><g clip-path="url(#a3e1380e99)"><g clip-path="url(#8fc7e1c54c)"><g clip-path="url(#438aa89324)"><path fill="#000000" d="M 205.078125 159.855469 L 205.503906 155.777344 L 208.746094 156.113281 L 208.324219 160.191406 Z M 205.078125 159.855469 " fill-opacity="1" fill-rule="nonzero"/></g></g></g><g fill="#ffffff" fill-opacity="1"><g transform="translate(81.192179, 216.528502)"><g><path d="M 20.203125 -0.28125 L 20.421875 -0.28125 L 20.421875 0 L 14.078125 0 L 14.078125 -0.28125 L 14.328125 -0.28125 C 14.722656 -0.28125 15.019531 -0.40625 15.21875 -0.65625 C 15.414062 -0.914062 15.515625 -1.15625 15.515625 -1.375 C 15.515625 -1.601562 15.476562 -1.832031 15.40625 -2.0625 L 13.59375 -6.859375 L 5.984375 -6.859375 L 4.09375 -2.03125 C 4.019531 -1.800781 3.984375 -1.578125 3.984375 -1.359375 C 3.984375 -1.148438 4.082031 -0.914062 4.28125 -0.65625 C 4.476562 -0.40625 4.773438 -0.28125 5.171875 -0.28125 L 5.421875 -0.28125 L 5.421875 0 L -0.25 0 L -0.25 -0.28125 L 0 -0.28125 C 0.46875 -0.28125 0.925781 -0.429688 1.375 -0.734375 C 1.832031 -1.035156 2.203125 -1.476562 2.484375 -2.0625 L 8.859375 -17.234375 C 9.554688 -18.753906 9.90625 -19.722656 9.90625 -20.140625 L 10.15625 -20.140625 L 17.71875 -2.0625 C 17.976562 -1.476562 18.332031 -1.035156 18.78125 -0.734375 C 19.238281 -0.429688 19.710938 -0.28125 20.203125 -0.28125 Z M 6.328125 -7.703125 L 13.265625 -7.703125 L 9.875 -16.75 Z M 6.328125 -7.703125 "/></g></g></g><g fill="#ffffff" fill-opacity="1"><g transform="translate(101.275563, 216.528502)"><g><path d="M 1.71875 -1.15625 C 1.664062 -1.414062 1.640625 -1.921875 1.640625 -2.671875 C 1.640625 -3.429688 1.78125 -4.234375 2.0625 -5.078125 L 2.3125 -5.078125 C 2.289062 -4.867188 2.28125 -4.660156 2.28125 -4.453125 C 2.28125 -3.304688 2.628906 -2.351562 3.328125 -1.59375 C 4.023438 -0.832031 4.945312 -0.453125 6.09375 -0.453125 C 7.28125 -0.453125 8.253906 -0.804688 9.015625 -1.515625 C 9.773438 -2.234375 10.15625 -3.132812 10.15625 -4.21875 C 10.15625 -5.300781 9.785156 -6.179688 9.046875 -6.859375 L 3.640625 -11.875 C 2.617188 -12.8125 2.109375 -13.945312 2.109375 -15.28125 C 2.109375 -16.613281 2.554688 -17.753906 3.453125 -18.703125 C 4.347656 -19.660156 5.554688 -20.140625 7.078125 -20.140625 C 7.796875 -20.140625 8.601562 -20.046875 9.5 -19.859375 L 10.609375 -19.859375 L 10.609375 -16.390625 L 10.34375 -16.390625 C 10.34375 -17.273438 10.035156 -17.976562 9.421875 -18.5 C 8.816406 -19.03125 8.035156 -19.296875 7.078125 -19.296875 C 6.117188 -19.296875 5.3125 -18.972656 4.65625 -18.328125 C 4.007812 -17.691406 3.6875 -16.894531 3.6875 -15.9375 C 3.6875 -14.976562 4.066406 -14.148438 4.828125 -13.453125 L 10.375 -8.3125 C 11.3125 -7.445312 11.78125 -6.265625 11.78125 -4.765625 C 11.78125 -3.265625 11.300781 -2.03125 10.34375 -1.0625 C 9.382812 -0.09375 8.109375 0.390625 6.515625 0.390625 C 5.691406 0.390625 4.8125 0.265625 3.875 0.015625 C 2.945312 -0.234375 2.226562 -0.625 1.71875 -1.15625 Z M 1.71875 -1.15625 "/></g></g></g><g fill="#ffffff" fill-opacity="1"><g transform="translate(114.673893, 216.528502)"><g><path d="M 1.71875 -1.15625 C 1.664062 -1.414062 1.640625 -1.921875 1.640625 -2.671875 C 1.640625 -3.429688 1.78125 -4.234375 2.0625 -5.078125 L 2.3125 -5.078125 C 2.289062 -4.867188 2.28125 -4.660156 2.28125 -4.453125 C 2.28125 -3.304688 2.628906 -2.351562 3.328125 -1.59375 C 4.023438 -0.832031 4.945312 -0.453125 6.09375 -0.453125 C 7.28125 -0.453125 8.253906 -0.804688 9.015625 -1.515625 C 9.773438 -2.234375 10.15625 -3.132812 10.15625 -4.21875 C 10.15625 -5.300781 9.785156 -6.179688 9.046875 -6.859375 L 3.640625 -11.875 C 2.617188 -12.8125 2.109375 -13.945312 2.109375 -15.28125 C 2.109375 -16.613281 2.554688 -17.753906 3.453125 -18.703125 C 4.347656 -19.660156 5.554688 -20.140625 7.078125 -20.140625 C 7.796875 -20.140625 8.601562 -20.046875 9.5 -19.859375 L 10.609375 -19.859375 L 10.609375 -16.390625 L 10.34375 -16.390625 C 10.34375 -17.273438 10.035156 -17.976562 9.421875 -18.5 C 8.816406 -19.03125 8.035156 -19.296875 7.078125 -19.296875 C 6.117188 -19.296875 5.3125 -18.972656 4.65625 -18.328125 C 4.007812 -17.691406 3.6875 -16.894531 3.6875 -15.9375 C 3.6875 -14.976562 4.066406 -14.148438 4.828125 -13.453125 L 10.375 -8.3125 C 11.3125 -7.445312 11.78125 -6.265625 11.78125 -4.765625 C 11.78125 -3.265625 11.300781 -2.03125 10.34375 -1.0625 C 9.382812 -0.09375 8.109375 0.390625 6.515625 0.390625 C 5.691406 0.390625 4.8125 0.265625 3.875 0.015625 C 2.945312 -0.234375 2.226562 -0.625 1.71875 -1.15625 Z M 1.71875 -1.15625 "/></g></g></g><g fill="#ffffff" fill-opacity="1"><g transform="translate(128.072223, 216.528502)"><g><path d="M 2.0625 -0.28125 C 2.550781 -0.28125 2.96875 -0.453125 3.3125 -0.796875 C 3.65625 -1.148438 3.835938 -1.570312 3.859375 -2.0625 L 3.859375 -17.859375 C 3.804688 -18.304688 3.609375 -18.679688 3.265625 -18.984375 C 2.929688 -19.296875 2.53125 -19.453125 2.0625 -19.453125 L 1.71875 -19.453125 L 1.6875 -19.734375 L 9.953125 -19.734375 C 10.535156 -19.734375 11.171875 -19.789062 11.859375 -19.90625 C 12.546875 -20.019531 13.03125 -20.132812 13.3125 -20.25 L 13.3125 -16.703125 L 13.03125 -16.703125 L 13.03125 -17.203125 C 13.03125 -17.648438 12.875 -18.035156 12.5625 -18.359375 C 12.25 -18.679688 11.878906 -18.851562 11.453125 -18.875 L 5.703125 -18.875 L 5.703125 -10.15625 L 10.46875 -10.15625 C 10.84375 -10.175781 11.160156 -10.316406 11.421875 -10.578125 C 11.679688 -10.835938 11.8125 -11.164062 11.8125 -11.5625 L 11.8125 -11.953125 L 12.09375 -11.953125 L 12.09375 -7.5 L 11.8125 -7.5 L 11.8125 -7.921875 C 11.8125 -8.296875 11.6875 -8.613281 11.4375 -8.875 C 11.1875 -9.144531 10.867188 -9.289062 10.484375 -9.3125 L 5.703125 -9.3125 L 5.703125 -0.875 L 9.734375 -0.875 C 11.117188 -0.875 12.175781 -1.179688 12.90625 -1.796875 C 13.644531 -2.421875 14.257812 -3.34375 14.75 -4.5625 L 15.03125 -4.5625 L 13.390625 0 L 1.6875 0 L 1.6875 -0.28125 Z M 2.0625 -0.28125 "/></g></g></g><g fill="#ffffff" fill-opacity="1"><g transform="translate(144.347666, 216.528502)"><g><path d="M 25.375 -0.28125 L 25.828125 -0.28125 L 25.828125 0 L 19.71875 0 L 19.71875 -0.25 L 20.140625 -0.25 C 20.453125 -0.25 20.722656 -0.375 20.953125 -0.625 C 21.179688 -0.882812 21.273438 -1.164062 21.234375 -1.46875 L 19.96875 -15.65625 L 14.046875 -2.484375 C 13.515625 -1.335938 13.195312 -0.378906 13.09375 0.390625 L 12.796875 0.390625 L 5.578125 -15.265625 L 4.375 -1.46875 C 4.332031 -1.164062 4.421875 -0.882812 4.640625 -0.625 C 4.867188 -0.375 5.132812 -0.25 5.4375 -0.25 L 5.890625 -0.25 L 5.890625 0 L 0.421875 0 L 0.421875 -0.28125 L 0.875 -0.28125 C 1.394531 -0.28125 1.847656 -0.4375 2.234375 -0.75 C 2.617188 -1.070312 2.851562 -1.507812 2.9375 -2.0625 L 5.046875 -20.140625 L 5.328125 -20.140625 L 13.203125 -3.125 L 20.890625 -20.140625 L 21.15625 -20.140625 L 23.328125 -2.0625 C 23.421875 -1.3125 23.796875 -0.785156 24.453125 -0.484375 C 24.734375 -0.347656 25.039062 -0.28125 25.375 -0.28125 Z M 25.375 -0.28125 "/></g></g></g><g fill="#ffffff" fill-opacity="1"><g transform="translate(170.608387, 216.528502)"><g/></g></g><g fill="#ffffff" fill-opacity="1"><g transform="translate(177.660133, 216.528502)"><g><path d="M 11.25 -19.734375 C 14.257812 -19.734375 16.695312 -18.828125 18.5625 -17.015625 C 20.4375 -15.203125 21.375 -12.816406 21.375 -9.859375 C 21.375 -6.910156 20.4375 -4.53125 18.5625 -2.71875 C 16.695312 -0.90625 14.257812 0 11.25 0 L 1.6875 0 L 1.6875 -0.28125 L 2.0625 -0.28125 C 2.550781 -0.28125 2.96875 -0.453125 3.3125 -0.796875 C 3.65625 -1.148438 3.835938 -1.570312 3.859375 -2.0625 L 3.859375 -17.859375 C 3.859375 -18.304688 3.675781 -18.679688 3.3125 -18.984375 C 2.945312 -19.296875 2.53125 -19.453125 2.0625 -19.453125 L 1.71875 -19.453125 L 1.6875 -19.734375 Z M 5.703125 -18.890625 L 5.703125 -0.84375 L 11.25 -0.84375 C 12.832031 -0.84375 14.226562 -1.21875 15.4375 -1.96875 C 16.65625 -2.726562 17.597656 -3.785156 18.265625 -5.140625 C 18.929688 -6.503906 19.265625 -8.082031 19.265625 -9.875 C 19.265625 -12.582031 18.523438 -14.757812 17.046875 -16.40625 C 15.566406 -18.0625 13.632812 -18.890625 11.25 -18.890625 Z M 5.703125 -18.890625 "/></g></g></g><g fill="#ffffff" fill-opacity="1"><g transform="translate(200.423185, 216.528502)"><g><path d="M 2.0625 -0.28125 C 2.550781 -0.28125 2.96875 -0.453125 3.3125 -0.796875 C 3.65625 -1.148438 3.835938 -1.570312 3.859375 -2.0625 L 3.859375 -17.859375 C 3.804688 -18.304688 3.609375 -18.679688 3.265625 -18.984375 C 2.929688 -19.296875 2.53125 -19.453125 2.0625 -19.453125 L 1.71875 -19.453125 L 1.6875 -19.734375 L 9.953125 -19.734375 C 10.535156 -19.734375 11.171875 -19.789062 11.859375 -19.90625 C 12.546875 -20.019531 13.03125 -20.132812 13.3125 -20.25 L 13.3125 -16.703125 L 13.03125 -16.703125 L 13.03125 -17.203125 C 13.03125 -17.648438 12.875 -18.035156 12.5625 -18.359375 C 12.25 -18.679688 11.878906 -18.851562 11.453125 -18.875 L 5.703125 -18.875 L 5.703125 -10.15625 L 10.46875 -10.15625 C 10.84375 -10.175781 11.160156 -10.316406 11.421875 -10.578125 C 11.679688 -10.835938 11.8125 -11.164062 11.8125 -11.5625 L 11.8125 -11.953125 L 12.09375 -11.953125 L 12.09375 -7.5 L 11.8125 -7.5 L 11.8125 -7.921875 C 11.8125 -8.296875 11.6875 -8.613281 11.4375 -8.875 C 11.1875 -9.144531 10.867188 -9.289062 10.484375 -9.3125 L 5.703125 -9.3125 L 5.703125 -0.875 L 9.734375 -0.875 C 11.117188 -0.875 12.175781 -1.179688 12.90625 -1.796875 C 13.644531 -2.421875 14.257812 -3.34375 14.75 -4.5625 L 15.03125 -4.5625 L 13.390625 0 L 1.6875 0 L 1.6875 -0.28125 Z M 2.0625 -0.28125 "/></g></g></g><g fill="#ffffff" fill-opacity="1"><g transform="translate(216.698628, 216.528502)"><g><path d="M 21.9375 -19.453125 C 21.46875 -19.453125 21.0625 -19.285156 20.71875 -18.953125 C 20.382812 -18.628906 20.207031 -18.234375 20.1875 -17.765625 L 20.1875 -3.21875 C 20.1875 -2.125 20.253906 -1.085938 20.390625 -0.109375 L 20.453125 0.390625 L 20.1875 0.390625 L 4.828125 -16.015625 L 4.828125 -1.96875 C 4.835938 -1.3125 5.128906 -0.820312 5.703125 -0.5 C 5.960938 -0.351562 6.242188 -0.28125 6.546875 -0.28125 L 7.078125 -0.28125 L 7.078125 0 L 1.265625 0 L 1.265625 -0.28125 L 1.8125 -0.28125 C 2.28125 -0.28125 2.679688 -0.441406 3.015625 -0.765625 C 3.359375 -1.097656 3.53125 -1.507812 3.53125 -2 L 3.53125 -16.640625 C 3.53125 -17.785156 3.460938 -18.8125 3.328125 -19.71875 L 3.265625 -20.171875 L 3.546875 -20.171875 L 18.921875 -3.75 L 18.921875 -17.734375 C 18.898438 -18.222656 18.71875 -18.628906 18.375 -18.953125 C 18.039062 -19.285156 17.640625 -19.453125 17.171875 -19.453125 L 16.640625 -19.453125 L 16.640625 -19.734375 L 22.453125 -19.734375 L 22.453125 -19.453125 Z M 21.9375 -19.453125 "/></g></g></g><g fill="#ffffff" fill-opacity="1"><g transform="translate(240.420719, 216.528502)"><g><path d="M 16.609375 -17.234375 C 16.609375 -17.679688 16.445312 -18.066406 16.125 -18.390625 C 15.8125 -18.722656 15.4375 -18.898438 15 -18.921875 L 9.640625 -18.921875 L 9.640625 -2.03125 C 9.660156 -1.539062 9.84375 -1.125 10.1875 -0.78125 C 10.539062 -0.445312 10.960938 -0.28125 11.453125 -0.28125 L 11.8125 -0.28125 L 11.8125 0 L 5.640625 0 L 5.640625 -0.28125 L 6 -0.28125 C 6.488281 -0.28125 6.90625 -0.445312 7.25 -0.78125 C 7.601562 -1.125 7.789062 -1.53125 7.8125 -2 L 7.8125 -18.921875 L 2.453125 -18.921875 C 2.003906 -18.898438 1.625 -18.722656 1.3125 -18.390625 C 1 -18.066406 0.84375 -17.679688 0.84375 -17.234375 L 0.84375 -16.75 L 0.5625 -16.71875 L 0.5625 -20.28125 C 0.84375 -20.164062 1.332031 -20.050781 2.03125 -19.9375 C 2.726562 -19.820312 3.367188 -19.765625 3.953125 -19.765625 L 13.484375 -19.765625 C 14.398438 -19.765625 15.164062 -19.832031 15.78125 -19.96875 C 16.394531 -20.113281 16.765625 -20.21875 16.890625 -20.28125 L 16.890625 -16.71875 L 16.609375 -16.75 Z M 16.609375 -17.234375 "/></g></g></g><g fill="#ffffff" fill-opacity="1"><g transform="translate(257.852644, 216.528502)"><g><path d="M 20.203125 -0.28125 L 20.421875 -0.28125 L 20.421875 0 L 14.078125 0 L 14.078125 -0.28125 L 14.328125 -0.28125 C 14.722656 -0.28125 15.019531 -0.40625 15.21875 -0.65625 C 15.414062 -0.914062 15.515625 -1.15625 15.515625 -1.375 C 15.515625 -1.601562 15.476562 -1.832031 15.40625 -2.0625 L 13.59375 -6.859375 L 5.984375 -6.859375 L 4.09375 -2.03125 C 4.019531 -1.800781 3.984375 -1.578125 3.984375 -1.359375 C 3.984375 -1.148438 4.082031 -0.914062 4.28125 -0.65625 C 4.476562 -0.40625 4.773438 -0.28125 5.171875 -0.28125 L 5.421875 -0.28125 L 5.421875 0 L -0.25 0 L -0.25 -0.28125 L 0 -0.28125 C 0.46875 -0.28125 0.925781 -0.429688 1.375 -0.734375 C 1.832031 -1.035156 2.203125 -1.476562 2.484375 -2.0625 L 8.859375 -17.234375 C 9.554688 -18.753906 9.90625 -19.722656 9.90625 -20.140625 L 10.15625 -20.140625 L 17.71875 -2.0625 C 17.976562 -1.476562 18.332031 -1.035156 18.78125 -0.734375 C 19.238281 -0.429688 19.710938 -0.28125 20.203125 -0.28125 Z M 6.328125 -7.703125 L 13.265625 -7.703125 L 9.875 -16.75 Z M 6.328125 -7.703125 "/></g></g></g><g fill="#ffffff" fill-opacity="1"><g transform="translate(277.936017, 216.528502)"><g><path d="M 2.0625 -0.28125 C 2.550781 -0.28125 2.96875 -0.453125 3.3125 -0.796875 C 3.65625 -1.148438 3.835938 -1.570312 3.859375 -2.0625 L 3.859375 -17.6875 C 3.835938 -18.175781 3.65625 -18.59375 3.3125 -18.9375 C 2.96875 -19.28125 2.550781 -19.453125 2.0625 -19.453125 L 1.6875 -19.453125 L 1.6875 -19.734375 L 7.875 -19.734375 L 7.875 -19.453125 L 7.5 -19.453125 C 6.820312 -19.453125 6.304688 -19.160156 5.953125 -18.578125 C 5.785156 -18.296875 5.703125 -18 5.703125 -17.6875 L 5.703125 -0.875 L 9.734375 -0.875 C 11.117188 -0.875 12.175781 -1.179688 12.90625 -1.796875 C 13.644531 -2.421875 14.257812 -3.34375 14.75 -4.5625 L 15.03125 -4.5625 L 13.390625 0 L 1.6875 0 L 1.6875 -0.28125 Z M 2.0625 -0.28125 "/></g></g></g><g fill="#ffffff" fill-opacity="1"><g transform="translate(158.704388, 237.157456)"><g><path d="M 10.015625 -2.515625 L 8.9375 -2.515625 C 7.9375 -1.25 7 -0.71875 5.609375 -0.71875 C 3.375 -0.71875 1.546875 -2.5625 1.546875 -4.8125 C 1.546875 -7.125 3.296875 -8.890625 5.59375 -8.890625 C 6.9375 -8.890625 8.078125 -8.390625 8.890625 -7.109375 L 9.96875 -7.109375 C 9.234375 -8.765625 7.546875 -9.78125 5.546875 -9.78125 C 2.6875 -9.78125 0.578125 -7.640625 0.578125 -4.765625 C 0.578125 -1.96875 2.75 0.171875 5.609375 0.171875 C 7.5625 0.171875 9.046875 -0.734375 10.015625 -2.515625 Z M 10.015625 -2.515625 "/></g></g></g><g fill="#ffffff" fill-opacity="1"><g transform="translate(172.260158, 237.157456)"><g><path d="M 5.921875 0 L 5.921875 -0.875 L 1.953125 -0.875 L 1.953125 -9.609375 L 0.984375 -9.609375 L 0.984375 0 Z M 5.921875 0 "/></g></g></g><g fill="#ffffff" fill-opacity="1"><g transform="translate(181.254335, 237.157456)"><g><path d="M 1.953125 0 L 1.953125 -9.609375 L 0.984375 -9.609375 L 0.984375 0 Z M 1.953125 0 "/></g></g></g><g fill="#ffffff" fill-opacity="1"><g transform="translate(187.18145, 237.157456)"><g><path d="M 8.625 0 L 8.625 -9.609375 L 7.671875 -9.609375 L 7.671875 -1.640625 L 2.28125 -9.609375 L 0.984375 -9.609375 L 0.984375 0 L 1.953125 0 L 1.953125 -8.453125 L 7.671875 0 Z M 8.625 0 "/></g></g></g><g fill="#ffffff" fill-opacity="1"><g transform="translate(199.788516, 237.157456)"><g><path d="M 1.953125 0 L 1.953125 -9.609375 L 0.984375 -9.609375 L 0.984375 0 Z M 1.953125 0 "/></g></g></g><g fill="#ffffff" fill-opacity="1"><g transform="translate(205.715631, 237.157456)"><g><path d="M 10.015625 -2.515625 L 8.9375 -2.515625 C 7.9375 -1.25 7 -0.71875 5.609375 -0.71875 C 3.375 -0.71875 1.546875 -2.5625 1.546875 -4.8125 C 1.546875 -7.125 3.296875 -8.890625 5.59375 -8.890625 C 6.9375 -8.890625 8.078125 -8.390625 8.890625 -7.109375 L 9.96875 -7.109375 C 9.234375 -8.765625 7.546875 -9.78125 5.546875 -9.78125 C 2.6875 -9.78125 0.578125 -7.640625 0.578125 -4.765625 C 0.578125 -1.96875 2.75 0.171875 5.609375 0.171875 C 7.5625 0.171875 9.046875 -0.734375 10.015625 -2.515625 Z M 10.015625 -2.515625 "/></g></g></g><g fill="#ffffff" fill-opacity="1"><g transform="translate(84.663765, 260.467922)"><g><path d="M 3.765625 0.046875 C 3.140625 0.046875 2.578125 -0.0859375 2.078125 -0.359375 C 1.578125 -0.640625 1.179688 -1.019531 0.890625 -1.5 C 0.609375 -1.988281 0.46875 -2.539062 0.46875 -3.15625 C 0.46875 -3.757812 0.609375 -4.304688 0.890625 -4.796875 C 1.179688 -5.285156 1.578125 -5.664062 2.078125 -5.9375 C 2.578125 -6.21875 3.140625 -6.359375 3.765625 -6.359375 C 4.234375 -6.359375 4.664062 -6.28125 5.0625 -6.125 C 5.457031 -5.96875 5.796875 -5.738281 6.078125 -5.4375 L 5.65625 -5.015625 C 5.15625 -5.515625 4.53125 -5.765625 3.78125 -5.765625 C 3.289062 -5.765625 2.835938 -5.648438 2.421875 -5.421875 C 2.015625 -5.191406 1.695312 -4.878906 1.46875 -4.484375 C 1.238281 -4.085938 1.125 -3.644531 1.125 -3.15625 C 1.125 -2.65625 1.238281 -2.207031 1.46875 -1.8125 C 1.695312 -1.414062 2.015625 -1.101562 2.421875 -0.875 C 2.835938 -0.65625 3.289062 -0.546875 3.78125 -0.546875 C 4.539062 -0.546875 5.164062 -0.796875 5.65625 -1.296875 L 6.078125 -0.875 C 5.796875 -0.570312 5.457031 -0.34375 5.0625 -0.1875 C 4.664062 -0.03125 4.234375 0.046875 3.765625 0.046875 Z M 3.765625 0.046875 "/></g></g></g><g fill="#ffffff" fill-opacity="1"><g transform="translate(92.574839, 260.467922)"><g><path d="M 3.78125 0.046875 C 3.15625 0.046875 2.585938 -0.0859375 2.078125 -0.359375 C 1.578125 -0.640625 1.179688 -1.019531 0.890625 -1.5 C 0.609375 -1.988281 0.46875 -2.539062 0.46875 -3.15625 C 0.46875 -3.757812 0.609375 -4.300781 0.890625 -4.78125 C 1.179688 -5.269531 1.578125 -5.65625 2.078125 -5.9375 C 2.585938 -6.21875 3.15625 -6.359375 3.78125 -6.359375 C 4.40625 -6.359375 4.96875 -6.21875 5.46875 -5.9375 C 5.96875 -5.664062 6.359375 -5.285156 6.640625 -4.796875 C 6.929688 -4.304688 7.078125 -3.757812 7.078125 -3.15625 C 7.078125 -2.539062 6.929688 -1.988281 6.640625 -1.5 C 6.359375 -1.019531 5.96875 -0.640625 5.46875 -0.359375 C 4.96875 -0.0859375 4.40625 0.046875 3.78125 0.046875 Z M 3.78125 -0.546875 C 4.28125 -0.546875 4.726562 -0.65625 5.125 -0.875 C 5.53125 -1.101562 5.847656 -1.414062 6.078125 -1.8125 C 6.304688 -2.207031 6.421875 -2.65625 6.421875 -3.15625 C 6.421875 -3.644531 6.304688 -4.085938 6.078125 -4.484375 C 5.847656 -4.878906 5.53125 -5.191406 5.125 -5.421875 C 4.726562 -5.648438 4.28125 -5.765625 3.78125 -5.765625 C 3.28125 -5.765625 2.828125 -5.648438 2.421875 -5.421875 C 2.015625 -5.191406 1.695312 -4.878906 1.46875 -4.484375 C 1.238281 -4.085938 1.125 -3.644531 1.125 -3.15625 C 1.125 -2.65625 1.238281 -2.207031 1.46875 -1.8125 C 1.695312 -1.414062 2.015625 -1.101562 2.421875 -0.875 C 2.828125 -0.65625 3.28125 -0.546875 3.78125 -0.546875 Z M 3.78125 -0.546875 "/></g></g></g><g fill="#ffffff" fill-opacity="1"><g transform="translate(101.565915, 260.467922)"><g><path d="M 2.765625 0.046875 C 2.296875 0.046875 1.847656 -0.0234375 1.421875 -0.171875 C 0.992188 -0.316406 0.660156 -0.515625 0.421875 -0.765625 L 0.6875 -1.28125 C 0.914062 -1.050781 1.21875 -0.863281 1.59375 -0.71875 C 1.96875 -0.582031 2.359375 -0.515625 2.765625 -0.515625 C 3.328125 -0.515625 3.75 -0.617188 4.03125 -0.828125 C 4.3125 -1.035156 4.453125 -1.300781 4.453125 -1.625 C 4.453125 -1.875 4.375 -2.070312 4.21875 -2.21875 C 4.070312 -2.375 3.882812 -2.492188 3.65625 -2.578125 C 3.4375 -2.660156 3.128906 -2.75 2.734375 -2.84375 C 2.265625 -2.96875 1.882812 -3.082031 1.59375 -3.1875 C 1.3125 -3.300781 1.070312 -3.472656 0.875 -3.703125 C 0.675781 -3.929688 0.578125 -4.238281 0.578125 -4.625 C 0.578125 -4.945312 0.660156 -5.238281 0.828125 -5.5 C 0.992188 -5.757812 1.25 -5.96875 1.59375 -6.125 C 1.945312 -6.28125 2.378906 -6.359375 2.890625 -6.359375 C 3.253906 -6.359375 3.609375 -6.304688 3.953125 -6.203125 C 4.296875 -6.109375 4.59375 -5.972656 4.84375 -5.796875 L 4.625 -5.265625 C 4.363281 -5.441406 4.082031 -5.570312 3.78125 -5.65625 C 3.476562 -5.738281 3.179688 -5.78125 2.890625 -5.78125 C 2.335938 -5.78125 1.921875 -5.671875 1.640625 -5.453125 C 1.367188 -5.242188 1.234375 -4.972656 1.234375 -4.640625 C 1.234375 -4.390625 1.304688 -4.1875 1.453125 -4.03125 C 1.609375 -3.882812 1.800781 -3.769531 2.03125 -3.6875 C 2.269531 -3.601562 2.582031 -3.515625 2.96875 -3.421875 C 3.425781 -3.304688 3.796875 -3.191406 4.078125 -3.078125 C 4.367188 -2.972656 4.613281 -2.804688 4.8125 -2.578125 C 5.007812 -2.347656 5.109375 -2.046875 5.109375 -1.671875 C 5.109375 -1.347656 5.019531 -1.054688 4.84375 -0.796875 C 4.675781 -0.535156 4.414062 -0.328125 4.0625 -0.171875 C 3.707031 -0.0234375 3.273438 0.046875 2.765625 0.046875 Z M 2.765625 0.046875 "/></g></g></g><g fill="#ffffff" fill-opacity="1"><g transform="translate(108.540976, 260.467922)"><g><path d="M 7.5625 -6.296875 L 7.5625 0 L 6.9375 0 L 6.9375 -5.046875 L 4.453125 -0.796875 L 4.140625 -0.796875 L 1.671875 -5.015625 L 1.671875 0 L 1.03125 0 L 1.03125 -6.296875 L 1.578125 -6.296875 L 4.3125 -1.625 L 7.015625 -6.296875 Z M 7.5625 -6.296875 "/></g></g></g><g fill="#ffffff" fill-opacity="1"><g transform="translate(118.576062, 260.467922)"><g><path d="M 5.484375 -0.578125 L 5.484375 0 L 1.03125 0 L 1.03125 -6.296875 L 5.34375 -6.296875 L 5.34375 -5.71875 L 1.6875 -5.71875 L 1.6875 -3.484375 L 4.953125 -3.484375 L 4.953125 -2.921875 L 1.6875 -2.921875 L 1.6875 -0.578125 Z M 5.484375 -0.578125 "/></g></g></g><g fill="#ffffff" fill-opacity="1"><g transform="translate(126.037132, 260.467922)"><g><path d="M 2.25 -5.71875 L 0.03125 -5.71875 L 0.03125 -6.296875 L 5.125 -6.296875 L 5.125 -5.71875 L 2.921875 -5.71875 L 2.921875 0 L 2.25 0 Z M 2.25 -5.71875 "/></g></g></g><g fill="#ffffff" fill-opacity="1"><g transform="translate(132.643191, 260.467922)"><g><path d="M 1.03125 -6.296875 L 1.6875 -6.296875 L 1.6875 0 L 1.03125 0 Z M 1.03125 -6.296875 "/></g></g></g><g fill="#ffffff" fill-opacity="1"><g transform="translate(136.801229, 260.467922)"><g><path d="M 3.765625 0.046875 C 3.140625 0.046875 2.578125 -0.0859375 2.078125 -0.359375 C 1.578125 -0.640625 1.179688 -1.019531 0.890625 -1.5 C 0.609375 -1.988281 0.46875 -2.539062 0.46875 -3.15625 C 0.46875 -3.757812 0.609375 -4.304688 0.890625 -4.796875 C 1.179688 -5.285156 1.578125 -5.664062 2.078125 -5.9375 C 2.578125 -6.21875 3.140625 -6.359375 3.765625 -6.359375 C 4.234375 -6.359375 4.664062 -6.28125 5.0625 -6.125 C 5.457031 -5.96875 5.796875 -5.738281 6.078125 -5.4375 L 5.65625 -5.015625 C 5.15625 -5.515625 4.53125 -5.765625 3.78125 -5.765625 C 3.289062 -5.765625 2.835938 -5.648438 2.421875 -5.421875 C 2.015625 -5.191406 1.695312 -4.878906 1.46875 -4.484375 C 1.238281 -4.085938 1.125 -3.644531 1.125 -3.15625 C 1.125 -2.65625 1.238281 -2.207031 1.46875 -1.8125 C 1.695312 -1.414062 2.015625 -1.101562 2.421875 -0.875 C 2.835938 -0.65625 3.289062 -0.546875 3.78125 -0.546875 C 4.539062 -0.546875 5.164062 -0.796875 5.65625 -1.296875 L 6.078125 -0.875 C 5.796875 -0.570312 5.457031 -0.34375 5.0625 -0.1875 C 4.664062 -0.03125 4.234375 0.046875 3.765625 0.046875 Z M 3.765625 0.046875 "/></g></g></g><g fill="#ffffff" fill-opacity="1"><g transform="translate(144.722354, 260.467922)"><g/></g></g><g fill="#ffffff" fill-opacity="1"><g transform="translate(148.520399, 260.467922)"><g/></g></g><g fill="#ffffff" fill-opacity="1"><g transform="translate(152.327823, 260.467922)"><g><path d="M 1.03125 -6.296875 L 1.6875 -6.296875 L 1.6875 0 L 1.03125 0 Z M 1.03125 -6.296875 "/></g></g></g><g fill="#ffffff" fill-opacity="1"><g transform="translate(156.485864, 260.467922)"><g><path d="M 7.5625 -6.296875 L 7.5625 0 L 6.9375 0 L 6.9375 -5.046875 L 4.453125 -0.796875 L 4.140625 -0.796875 L 1.671875 -5.015625 L 1.671875 0 L 1.03125 0 L 1.03125 -6.296875 L 1.578125 -6.296875 L 4.3125 -1.625 L 7.015625 -6.296875 Z M 7.5625 -6.296875 "/></g></g></g><g fill="#ffffff" fill-opacity="1"><g transform="translate(166.52095, 260.467922)"><g><path d="M 3.390625 -6.296875 C 4.191406 -6.296875 4.816406 -6.101562 5.265625 -5.71875 C 5.722656 -5.332031 5.953125 -4.804688 5.953125 -4.140625 C 5.953125 -3.460938 5.722656 -2.929688 5.265625 -2.546875 C 4.816406 -2.171875 4.191406 -1.984375 3.390625 -1.984375 L 1.6875 -1.984375 L 1.6875 0 L 1.03125 0 L 1.03125 -6.296875 Z M 3.359375 -2.578125 C 3.984375 -2.578125 4.460938 -2.710938 4.796875 -2.984375 C 5.128906 -3.253906 5.296875 -3.640625 5.296875 -4.140625 C 5.296875 -4.648438 5.128906 -5.039062 4.796875 -5.3125 C 4.460938 -5.582031 3.984375 -5.71875 3.359375 -5.71875 L 1.6875 -5.71875 L 1.6875 -2.578125 Z M 3.359375 -2.578125 "/></g></g></g><g fill="#ffffff" fill-opacity="1"><g transform="translate(174.423018, 260.467922)"><g><path d="M 1.03125 -6.296875 L 1.6875 -6.296875 L 1.6875 -0.578125 L 5.21875 -0.578125 L 5.21875 0 L 1.03125 0 Z M 1.03125 -6.296875 "/></g></g></g><g fill="#ffffff" fill-opacity="1"><g transform="translate(181.164082, 260.467922)"><g><path d="M 4.984375 -1.6875 L 1.46875 -1.6875 L 0.71875 0 L 0.015625 0 L 2.890625 -6.296875 L 3.5625 -6.296875 L 6.4375 0 L 5.734375 0 Z M 4.734375 -2.21875 L 3.21875 -5.609375 L 1.703125 -2.21875 Z M 4.734375 -2.21875 "/></g></g></g><g fill="#ffffff" fill-opacity="1"><g transform="translate(189.057155, 260.467922)"><g><path d="M 6.296875 -6.296875 L 6.296875 0 L 5.734375 0 L 1.6875 -5.109375 L 1.6875 0 L 1.03125 0 L 1.03125 -6.296875 L 1.578125 -6.296875 L 5.640625 -1.1875 L 5.640625 -6.296875 Z M 6.296875 -6.296875 "/></g></g></g><g fill="#ffffff" fill-opacity="1"><g transform="translate(197.814233, 260.467922)"><g><path d="M 2.25 -5.71875 L 0.03125 -5.71875 L 0.03125 -6.296875 L 5.125 -6.296875 L 5.125 -5.71875 L 2.921875 -5.71875 L 2.921875 0 L 2.25 0 Z M 2.25 -5.71875 "/></g></g></g><g fill="#ffffff" fill-opacity="1"><g transform="translate(204.429382, 260.467922)"><g/></g></g><g fill="#ffffff" fill-opacity="1"><g transform="translate(208.227426, 260.467922)"><g/></g></g><g fill="#ffffff" fill-opacity="1"><g transform="translate(212.034854, 260.467922)"><g><path d="M 5.328125 0 L 3.890625 -2.03125 C 3.722656 -2.007812 3.554688 -2 3.390625 -2 L 1.6875 -2 L 1.6875 0 L 1.03125 0 L 1.03125 -6.296875 L 3.390625 -6.296875 C 4.191406 -6.296875 4.816406 -6.101562 5.265625 -5.71875 C 5.722656 -5.332031 5.953125 -4.804688 5.953125 -4.140625 C 5.953125 -3.648438 5.828125 -3.234375 5.578125 -2.890625 C 5.335938 -2.554688 4.984375 -2.3125 4.515625 -2.15625 L 6.0625 0 Z M 3.359375 -2.5625 C 3.984375 -2.5625 4.460938 -2.695312 4.796875 -2.96875 C 5.128906 -3.25 5.296875 -3.640625 5.296875 -4.140625 C 5.296875 -4.648438 5.128906 -5.039062 4.796875 -5.3125 C 4.460938 -5.582031 3.984375 -5.71875 3.359375 -5.71875 L 1.6875 -5.71875 L 1.6875 -2.5625 Z M 3.359375 -2.5625 "/></g></g></g><g fill="#ffffff" fill-opacity="1"><g transform="translate(219.981919, 260.467922)"><g><path d="M 5.484375 -0.578125 L 5.484375 0 L 1.03125 0 L 1.03125 -6.296875 L 5.34375 -6.296875 L 5.34375 -5.71875 L 1.6875 -5.71875 L 1.6875 -3.484375 L 4.953125 -3.484375 L 4.953125 -2.921875 L 1.6875 -2.921875 L 1.6875 -0.578125 Z M 5.484375 -0.578125 "/></g></g></g><g fill="#ffffff" fill-opacity="1"><g transform="translate(227.442989, 260.467922)"><g><path d="M 2.765625 0.046875 C 2.296875 0.046875 1.847656 -0.0234375 1.421875 -0.171875 C 0.992188 -0.316406 0.660156 -0.515625 0.421875 -0.765625 L 0.6875 -1.28125 C 0.914062 -1.050781 1.21875 -0.863281 1.59375 -0.71875 C 1.96875 -0.582031 2.359375 -0.515625 2.765625 -0.515625 C 3.328125 -0.515625 3.75 -0.617188 4.03125 -0.828125 C 4.3125 -1.035156 4.453125 -1.300781 4.453125 -1.625 C 4.453125 -1.875 4.375 -2.070312 4.21875 -2.21875 C 4.070312 -2.375 3.882812 -2.492188 3.65625 -2.578125 C 3.4375 -2.660156 3.128906 -2.75 2.734375 -2.84375 C 2.265625 -2.96875 1.882812 -3.082031 1.59375 -3.1875 C 1.3125 -3.300781 1.070312 -3.472656 0.875 -3.703125 C 0.675781 -3.929688 0.578125 -4.238281 0.578125 -4.625 C 0.578125 -4.945312 0.660156 -5.238281 0.828125 -5.5 C 0.992188 -5.757812 1.25 -5.96875 1.59375 -6.125 C 1.945312 -6.28125 2.378906 -6.359375 2.890625 -6.359375 C 3.253906 -6.359375 3.609375 -6.304688 3.953125 -6.203125 C 4.296875 -6.109375 4.59375 -5.972656 4.84375 -5.796875 L 4.625 -5.265625 C 4.363281 -5.441406 4.082031 -5.570312 3.78125 -5.65625 C 3.476562 -5.738281 3.179688 -5.78125 2.890625 -5.78125 C 2.335938 -5.78125 1.921875 -5.671875 1.640625 -5.453125 C 1.367188 -5.242188 1.234375 -4.972656 1.234375 -4.640625 C 1.234375 -4.390625 1.304688 -4.1875 1.453125 -4.03125 C 1.609375 -3.882812 1.800781 -3.769531 2.03125 -3.6875 C 2.269531 -3.601562 2.582031 -3.515625 2.96875 -3.421875 C 3.425781 -3.304688 3.796875 -3.191406 4.078125 -3.078125 C 4.367188 -2.972656 4.613281 -2.804688 4.8125 -2.578125 C 5.007812 -2.347656 5.109375 -2.046875 5.109375 -1.671875 C 5.109375 -1.347656 5.019531 -1.054688 4.84375 -0.796875 C 4.675781 -0.535156 4.414062 -0.328125 4.0625 -0.171875 C 3.707031 -0.0234375 3.273438 0.046875 2.765625 0.046875 Z M 2.765625 0.046875 "/></g></g></g><g fill="#ffffff" fill-opacity="1"><g transform="translate(234.418051, 260.467922)"><g><path d="M 2.25 -5.71875 L 0.03125 -5.71875 L 0.03125 -6.296875 L 5.125 -6.296875 L 5.125 -5.71875 L 2.921875 -5.71875 L 2.921875 0 L 2.25 0 Z M 2.25 -5.71875 "/></g></g></g><g fill="#ffffff" fill-opacity="1"><g transform="translate(241.02411, 260.467922)"><g><path d="M 3.78125 0.046875 C 3.15625 0.046875 2.585938 -0.0859375 2.078125 -0.359375 C 1.578125 -0.640625 1.179688 -1.019531 0.890625 -1.5 C 0.609375 -1.988281 0.46875 -2.539062 0.46875 -3.15625 C 0.46875 -3.757812 0.609375 -4.300781 0.890625 -4.78125 C 1.179688 -5.269531 1.578125 -5.65625 2.078125 -5.9375 C 2.585938 -6.21875 3.15625 -6.359375 3.78125 -6.359375 C 4.40625 -6.359375 4.96875 -6.21875 5.46875 -5.9375 C 5.96875 -5.664062 6.359375 -5.285156 6.640625 -4.796875 C 6.929688 -4.304688 7.078125 -3.757812 7.078125 -3.15625 C 7.078125 -2.539062 6.929688 -1.988281 6.640625 -1.5 C 6.359375 -1.019531 5.96875 -0.640625 5.46875 -0.359375 C 4.96875 -0.0859375 4.40625 0.046875 3.78125 0.046875 Z M 3.78125 -0.546875 C 4.28125 -0.546875 4.726562 -0.65625 5.125 -0.875 C 5.53125 -1.101562 5.847656 -1.414062 6.078125 -1.8125 C 6.304688 -2.207031 6.421875 -2.65625 6.421875 -3.15625 C 6.421875 -3.644531 6.304688 -4.085938 6.078125 -4.484375 C 5.847656 -4.878906 5.53125 -5.191406 5.125 -5.421875 C 4.726562 -5.648438 4.28125 -5.765625 3.78125 -5.765625 C 3.28125 -5.765625 2.828125 -5.648438 2.421875 -5.421875 C 2.015625 -5.191406 1.695312 -4.878906 1.46875 -4.484375 C 1.238281 -4.085938 1.125 -3.644531 1.125 -3.15625 C 1.125 -2.65625 1.238281 -2.207031 1.46875 -1.8125 C 1.695312 -1.414062 2.015625 -1.101562 2.421875 -0.875 C 2.828125 -0.65625 3.28125 -0.546875 3.78125 -0.546875 Z M 3.78125 -0.546875 "/></g></g></g><g fill="#ffffff" fill-opacity="1"><g transform="translate(250.015186, 260.467922)"><g><path d="M 5.328125 0 L 3.890625 -2.03125 C 3.722656 -2.007812 3.554688 -2 3.390625 -2 L 1.6875 -2 L 1.6875 0 L 1.03125 0 L 1.03125 -6.296875 L 3.390625 -6.296875 C 4.191406 -6.296875 4.816406 -6.101562 5.265625 -5.71875 C 5.722656 -5.332031 5.953125 -4.804688 5.953125 -4.140625 C 5.953125 -3.648438 5.828125 -3.234375 5.578125 -2.890625 C 5.335938 -2.554688 4.984375 -2.3125 4.515625 -2.15625 L 6.0625 0 Z M 3.359375 -2.5625 C 3.984375 -2.5625 4.460938 -2.695312 4.796875 -2.96875 C 5.128906 -3.25 5.296875 -3.640625 5.296875 -4.140625 C 5.296875 -4.648438 5.128906 -5.039062 4.796875 -5.3125 C 4.460938 -5.582031 3.984375 -5.71875 3.359375 -5.71875 L 1.6875 -5.71875 L 1.6875 -2.5625 Z M 3.359375 -2.5625 "/></g></g></g><g fill="#ffffff" fill-opacity="1"><g transform="translate(257.962251, 260.467922)"><g><path d="M 4.984375 -1.6875 L 1.46875 -1.6875 L 0.71875 0 L 0.015625 0 L 2.890625 -6.296875 L 3.5625 -6.296875 L 6.4375 0 L 5.734375 0 Z M 4.734375 -2.21875 L 3.21875 -5.609375 L 1.703125 -2.21875 Z M 4.734375 -2.21875 "/></g></g></g><g fill="#ffffff" fill-opacity="1"><g transform="translate(265.855327, 260.467922)"><g><path d="M 2.25 -5.71875 L 0.03125 -5.71875 L 0.03125 -6.296875 L 5.125 -6.296875 L 5.125 -5.71875 L 2.921875 -5.71875 L 2.921875 0 L 2.25 0 Z M 2.25 -5.71875 "/></g></g></g><g fill="#ffffff" fill-opacity="1"><g transform="translate(272.461383, 260.467922)"><g><path d="M 1.03125 -6.296875 L 1.6875 -6.296875 L 1.6875 0 L 1.03125 0 Z M 1.03125 -6.296875 "/></g></g></g><g fill="#ffffff" fill-opacity="1"><g transform="translate(276.619421, 260.467922)"><g><path d="M 6.265625 -6.296875 L 3.46875 0 L 2.8125 0 L 0.03125 -6.296875 L 0.75 -6.296875 L 3.15625 -0.828125 L 5.59375 -6.296875 Z M 6.265625 -6.296875 "/></g></g></g><g fill="#ffffff" fill-opacity="1"><g transform="translate(284.341482, 260.467922)"><g><path d="M 5.484375 -0.578125 L 5.484375 0 L 1.03125 0 L 1.03125 -6.296875 L 5.34375 -6.296875 L 5.34375 -5.71875 L 1.6875 -5.71875 L 1.6875 -3.484375 L 4.953125 -3.484375 L 4.953125 -2.921875 L 1.6875 -2.921875 L 1.6875 -0.578125 Z M 5.484375 -0.578125 "/></g></g></g><g fill="#ffffff" fill-opacity="1"><g transform="translate(147.157994, 260.467922)"><g><path d="M 1.328125 -1.765625 C 1.140625 -1.765625 0.976562 -1.832031 0.84375 -1.96875 C 0.71875 -2.101562 0.65625 -2.269531 0.65625 -2.46875 C 0.65625 -2.65625 0.71875 -2.8125 0.84375 -2.9375 C 0.976562 -3.070312 1.140625 -3.140625 1.328125 -3.140625 C 1.515625 -3.140625 1.671875 -3.070312 1.796875 -2.9375 C 1.929688 -2.8125 2 -2.65625 2 -2.46875 C 2 -2.269531 1.929688 -2.101562 1.796875 -1.96875 C 1.671875 -1.832031 1.515625 -1.765625 1.328125 -1.765625 Z M 1.328125 -1.765625 "/></g></g></g><g fill="#ffffff" fill-opacity="1"><g transform="translate(205.916182, 260.467922)"><g><path d="M 1.328125 -1.765625 C 1.140625 -1.765625 0.976562 -1.832031 0.84375 -1.96875 C 0.71875 -2.101562 0.65625 -2.269531 0.65625 -2.46875 C 0.65625 -2.65625 0.71875 -2.8125 0.84375 -2.9375 C 0.976562 -3.070312 1.140625 -3.140625 1.328125 -3.140625 C 1.515625 -3.140625 1.671875 -3.070312 1.796875 -2.9375 C 1.929688 -2.8125 2 -2.65625 2 -2.46875 C 2 -2.269531 1.929688 -2.101562 1.796875 -1.96875 C 1.671875 -1.832031 1.515625 -1.765625 1.328125 -1.765625 Z M 1.328125 -1.765625 "/></g></g></g></svg>